<svg width="50" height="47" viewBox="0 0 50 47" fill="none" xmlns="http://www.w3.org/2000/svg">
<path d="M24.5247 46.2046C24.2871 45.9808 23.4636 44.1935 21.9128 40.548L19.6503 35.1986H12.9185C9.02176 35.1986 5.86565 35.1432 5.4328 35.0593C4.3153 34.8497 2.80666 34.0537 1.99639 33.2434C1.17292 32.4199 0.376896 30.981 0.153081 29.9194C0.0417014 29.4169 0 25.5339 0 17.5595C0 7.55904 0.027449 5.81339 0.209035 5.1013C0.879425 2.53112 3.01623 0.561649 5.58641 0.156776C6.84273 -0.0522587 43.1699 -0.0522587 44.4131 0.156776C46.913 0.547925 48.9802 2.33581 49.7202 4.71015C49.9858 5.5901 50 5.99497 50 17.5172C50 25.0172 49.9435 29.6265 49.8459 30.0171C49.469 31.6794 48.0443 33.5227 46.5361 34.3329C44.9858 35.1569 44.6084 35.1986 37.2061 35.1986H30.4885L28.2261 40.548C26.9687 43.4809 25.8517 45.9808 25.7256 46.1065C25.307 46.5256 24.9158 46.5536 24.5247 46.2046ZM41.8988 27.1682C42.318 26.9307 42.8627 26.4836 43.114 26.1484C43.938 25.0594 43.9939 24.6545 43.9939 19.2492V14.3886H41.0611V15.2685L40.7539 14.9893C39.9853 14.2909 38.9523 14.0534 37.7651 14.2909C35.5301 14.7517 34.3572 16.3443 34.3572 18.914C34.3572 21.065 34.9437 22.1403 36.5357 22.9226C37.2483 23.2715 37.6115 23.3692 38.2397 23.3692C39.2453 23.3554 40.0835 23.1316 40.5723 22.741L40.9629 22.4333L40.8653 23.0482C40.67 24.2634 40.0276 24.8641 38.9101 24.8641H38.2677V27.685L39.7061 27.629C40.9635 27.5868 41.2147 27.5314 41.8988 27.1682ZM13.4912 22.8804C14.2872 22.5172 15.0553 21.7349 15.4184 20.9668C15.8096 20.0869 15.8238 18.006 15.4464 16.9165C15.1672 16.0931 14.3152 15.059 13.6306 14.6963C12.2064 13.9557 10.3905 14.0814 9.39918 14.9893L9.07771 15.2691V10.618H6.00553L6.03298 16.8046L6.07521 22.978L7.58332 23.0202C9.00803 23.0625 9.07771 23.0482 9.07771 22.7684C9.07771 22.4195 9.11994 22.4195 9.76235 22.8387C10.74 23.4948 12.1641 23.509 13.4912 22.8809V22.8804ZM29.8461 23.0202C30.6981 22.713 31.8572 21.7217 32.3181 20.8972C33.8404 18.2436 32.1085 15.0315 28.8125 14.3886C26.7454 13.9837 24.5104 14.9893 23.5333 16.7772C23.2256 17.3636 23.1142 17.7548 23.072 18.593C23.0165 19.5284 23.0582 19.7517 23.3934 20.506C23.7983 21.4139 24.72 22.4058 25.5582 22.8387C26.7734 23.4668 28.4493 23.537 29.8461 23.0202ZM21.0608 18.2573L21.0191 13.4812L20.5583 12.5453C19.9159 11.2467 18.896 10.5478 17.22 10.2686L16.6199 10.1709V11.7213C16.6199 13.0478 16.6478 13.2716 16.8432 13.2716C16.9688 13.2716 17.276 13.4812 17.5415 13.7467L18.0166 14.2212V23.0482H21.1025L21.0608 18.2573Z" fill="black"/>
<path d="M38.5886 20.4644C37.6669 20.0732 37.3038 18.8164 37.8485 17.9221C38.6034 16.6796 40.3627 16.7909 40.9492 18.1175C41.3821 19.1098 40.9492 20.1286 39.9019 20.5203C39.3846 20.7156 39.1328 20.7019 38.5886 20.4644ZM9.94393 20.3107C8.91037 19.5981 9.02175 17.9221 10.1392 17.3916C11.6753 16.6653 13.1423 18.1877 12.36 19.6963C11.9688 20.4644 10.6418 20.7995 9.94393 20.3107ZM26.9966 20.3947C26.7887 20.2701 26.6083 20.1044 26.4666 19.9077C26.3249 19.7111 26.2248 19.4875 26.1725 19.2508C26.1202 19.0141 26.1168 18.7692 26.1625 18.5311C26.2082 18.293 26.302 18.0668 26.4382 17.8662C26.843 17.266 27.2759 17.0427 28.0582 17.0427C28.575 17.0427 28.7423 17.1124 29.2037 17.587C29.6645 18.0483 29.7479 18.2156 29.7479 18.7324C29.7479 20.2268 28.226 21.1485 26.9966 20.3947Z" fill="black"/>
</svg>
