<svg xmlns="http://www.w3.org/2000/svg" width="50" height="50" version="1.0"><path d="M13.363 47.61c-5.593-1.992-8.16-4.273-11.03-9.796-2.27-4.37-2.568-5.826-2.202-10.748C1.372 10.363 18.918-2.49 34.326 2.02c15.732 4.604 20.438 20.548 10.368 35.13-3.258 4.718-4.425 3.53-1.562-1.592 7.98-14.276-.396-30.167-15.9-30.167-8.988 0-16.274 4.308-20.887 12.35-7.193 12.543-.701 24.59 14.584 27.062 4.243.686 13.211-1.393 14.895-3.453.758-.928-1.558-1.208-11.227-1.355-15.26-.232-16.397-.494-16.37-3.775.048-5.844 3.574-23.811 4.857-24.745.785-.573 6.443-.982 13.572-.982 9.826 0 12.412.273 13.176 1.392.59.863.815 6.955.591 16.052-.418 17.07-.537 17.316-9.45 19.625-6.773 1.754-12.774 1.77-17.61.048zM36.67 26.105c-.32-5.956-.995-11.244-1.502-11.751-.817-.817-13.709.42-18.697 1.795-1.114.306-1.744 2.582-2.566 9.269-.599 4.874-.849 9.25-.556 9.725.294.475 4.438.863 9.21.863h8.676l-2.367-5.964-2.366-5.963-4.602 5.036c-4.13 4.518-8.127 6.55-8.127 4.13 0-1.011 7.454-10.916 11.292-15.006 2.883-3.071 5.155-2.714 5.969.938.935 4.196 5.366 17.757 5.802 17.757.228 0 .153-4.873-.166-10.83z" style="fill:#1da3b2;fill-opacity:1"/></svg>