<svg width="50" height="50" viewBox="0 0 50 50" fill="none" xmlns="http://www.w3.org/2000/svg">
<g clip-path="url(#clip0_35_12)">
<path d="M25 50C31.6304 50 37.9893 47.3661 42.6777 42.6777C47.3661 37.9893 50 31.6304 50 25C50 18.3696 47.3661 12.0107 42.6777 7.32233C37.9893 2.63392 31.6304 0 25 0C18.3696 0 12.0107 2.63392 7.32233 7.32233C2.63392 12.0107 0 18.3696 0 25C0 31.6304 2.63392 37.9893 7.32233 42.6777C12.0107 47.3661 18.3696 50 25 50ZM27.9062 20.5875L24.7812 35.2906C24.5625 36.3531 24.8719 36.9562 25.7313 36.9562C26.3375 36.9562 27.2531 36.7375 27.875 36.1875L27.6 37.4875C26.7031 38.5688 24.725 39.3563 23.0219 39.3563C20.825 39.3563 19.8906 38.0375 20.4969 35.2344L22.8031 24.3969C23.0031 23.4813 22.8219 23.15 21.9062 22.9281L20.4969 22.675L20.7531 21.4844L27.9062 20.5875ZM25 17.1875C24.1712 17.1875 23.3763 16.8583 22.7903 16.2722C22.2042 15.6862 21.875 14.8913 21.875 14.0625C21.875 13.2337 22.2042 12.4388 22.7903 11.8528C23.3763 11.2667 24.1712 10.9375 25 10.9375C25.8288 10.9375 26.6237 11.2667 27.2097 11.8528C27.7958 12.4388 28.125 13.2337 28.125 14.0625C28.125 14.8913 27.7958 15.6862 27.2097 16.2722C26.6237 16.8583 25.8288 17.1875 25 17.1875Z" fill="black"/>
</g>
<defs>
<clipPath id="clip0_35_12">
<rect width="50" height="50" fill="white"/>
</clipPath>
</defs>
</svg>
