<svg width="50" height="50" viewBox="0 0 50 50" fill="none" xmlns="http://www.w3.org/2000/svg">
<g clip-path="url(#clip0_38_203)">
<path d="M50 25C50 31.6304 47.3661 37.9893 42.6777 42.6777C37.9893 47.3661 31.6304 50 25 50C18.3696 50 12.0107 47.3661 7.32233 42.6777C2.63392 37.9893 0 31.6304 0 25C0 18.3696 2.63392 12.0107 7.32233 7.32233C12.0107 2.63392 18.3696 0 25 0C31.6304 0 37.9893 2.63392 42.6777 7.32233C47.3661 12.0107 50 18.3696 50 25ZM20.3125 15.625C19.0693 15.625 17.877 16.1189 16.9979 16.9979C16.1189 17.877 15.625 19.0693 15.625 20.3125V29.6875C15.625 30.9307 16.1189 32.123 16.9979 33.0021C17.877 33.8811 19.0693 34.375 20.3125 34.375H29.6875C30.9307 34.375 32.123 33.8811 33.0021 33.0021C33.8811 32.123 34.375 30.9307 34.375 29.6875V20.3125C34.375 19.0693 33.8811 17.877 33.0021 16.9979C32.123 16.1189 30.9307 15.625 29.6875 15.625H20.3125Z" fill="black"/>
</g>
<defs>
<clipPath id="clip0_38_203">
<rect width="50" height="50" fill="white"/>
</clipPath>
</defs>
</svg>
